<svg width="220" height="34" viewBox="0 0 220 34" fill="none" xmlns="http://www.w3.org/2000/svg">
<path fill-rule="evenodd" clip-rule="evenodd" d="M84.6404 11.2082H91.63C93.4782 11.2082 94.9827 12.7488 94.9827 14.6429V15.136H92.6555V14.6429C92.6571 14.3634 92.5501 14.0943 92.3574 13.8934C92.1646 13.6924 91.9015 13.5755 91.6243 13.5677H84.6347C84.3592 13.5755 84.0981 13.6931 83.9084 13.8946C83.7188 14.0961 83.6161 14.3652 83.6229 14.6429V19.1908C83.6158 19.4686 83.7184 19.7378 83.9081 19.9394C84.0978 20.141 84.3591 20.2585 84.6347 20.266H91.6243C91.9015 20.2582 92.1646 20.1413 92.3574 19.9403C92.5501 19.7394 92.6571 19.4703 92.6555 19.1908V18.6988H94.9827V19.1908C94.9827 21.0849 93.4782 22.6255 91.63 22.6255H84.6404C83.9521 22.6224 83.2814 22.4057 82.7196 22.0048C82.1579 21.604 81.7323 21.0383 81.5008 20.385L81.3725 19.9438C81.317 19.6967 81.2886 19.4442 81.2877 19.1908V14.6429C81.2886 14.3895 81.317 14.137 81.3725 13.8899L81.4997 13.4522C81.7307 12.798 82.1562 12.2315 82.7182 11.8299C83.2803 11.4284 83.9515 11.2113 84.6404 11.2082ZM56.8963 16.4168L52.2534 11.2209H50.1841V22.6128H52.525V15.0355L56.8952 19.9138L61.2803 15.0332V22.6128H63.6212V11.2209H61.5519L56.8963 16.4168ZM71.8437 11.2209L65.8499 22.6128H68.4853L69.8603 20.0189H75.9687L77.3311 22.6128H79.9963L73.9784 11.2209H71.8437ZM71.0967 17.6698L72.914 14.219L74.7301 17.6698H71.0967ZM99.9877 15.7435H108.757V11.2209H111.098V22.6128H108.757V18.0902H99.9877V22.6128H97.6456V11.2209H99.9877V15.7435ZM117.032 11.2209H114.691V22.6139H117.032V11.2209ZM122.812 11.2209L131.885 19.1654V11.2209H134.214V22.6128H132.192L123.117 14.6683V22.6128H120.777V11.2209H122.812ZM142.441 11.2209L136.441 22.6128H139.077L140.452 20.0189H146.552L147.914 22.6128H150.58L144.566 11.2209H142.441ZM141.689 17.6698L143.505 14.219L145.321 17.6698H141.689ZM159.164 11.2209H161.505V20.2533H171.927V22.6128H159.164V11.2209ZM179.667 11.2209L173.668 22.6128H176.304L177.679 20.0189H183.781L185.144 22.6128H187.809L181.796 11.2209H179.667ZM178.914 17.6698L180.73 14.219L182.546 17.6698H178.914ZM190.035 11.2209H200.382C202.24 11.2209 203.749 12.7673 203.749 14.6694C203.744 15.495 203.448 16.2921 202.916 16.9192C203.451 17.5488 203.746 18.3501 203.749 19.1793C203.753 20.0842 203.401 20.9539 202.77 21.5976C202.139 22.2413 201.28 22.6064 200.382 22.6128H190.035V11.2209ZM200.382 18.0902H192.377V20.2533H200.382C200.661 20.2442 200.925 20.1262 201.119 19.9244C201.312 19.7225 201.421 19.4527 201.421 19.1718C201.421 18.8909 201.312 18.621 201.119 18.4192C200.925 18.2174 200.661 18.0994 200.382 18.0902ZM200.764 15.6635C200.885 15.6113 200.994 15.5352 201.086 15.4397C201.235 15.2915 201.338 15.1027 201.382 14.8964C201.427 14.6901 201.411 14.4753 201.336 14.278C201.261 14.0808 201.131 13.9098 200.962 13.7859C200.792 13.662 200.59 13.5906 200.381 13.5804H192.376V15.7435H200.381C200.513 15.7429 200.643 15.7157 200.764 15.6635ZM220 15.1487V14.6556C220 12.7616 218.497 11.2209 216.647 11.2209H209.658C207.809 11.2209 206.305 12.7616 206.305 14.6556C206.305 16.5496 207.809 18.0902 209.658 18.0902H216.647C216.924 18.0981 217.188 18.215 217.38 18.4159C217.573 18.6169 217.68 18.8859 217.679 19.1654C217.679 19.7556 217.209 20.2533 216.647 20.2533H209.658C209.1 20.2533 208.646 19.7648 208.646 19.1654V18.6723H206.305V19.1712C206.305 21.0721 207.809 22.6186 209.658 22.6186H216.647C218.497 22.6186 220 21.0721 220 19.1712C220 17.2702 218.497 15.7354 216.647 15.7354H209.658C209.385 15.7198 209.129 15.5998 208.942 15.4C208.755 15.2002 208.65 14.9357 208.65 14.6608C208.65 14.3859 208.755 14.1214 208.942 13.9216C209.129 13.7217 209.385 13.6017 209.658 13.5861H216.647C216.924 13.594 217.188 13.7109 217.38 13.9119C217.573 14.1128 217.68 14.3818 217.679 14.6613V15.1545L220 15.1487Z" fill="#FDFCFB"/>
<path fill-rule="evenodd" clip-rule="evenodd" d="M24.7156 15.7181L16.8495 7.72622V21.9914L10.0833 28.7452V0H16.8564L24.75 6.49395L31.3672 0H40.5052L49.4404 1.27962L37.0161 3.47276L24.7156 15.7181ZM32.5909 26.1075V11.8134L39.3559 5.05958V33.8337H32.5841L24.6904 27.3397L18.0732 33.8337H8.93521L0 32.5541L12.4243 30.3598L24.7248 18.1145L32.5909 26.1075Z" fill="#FF9900"/>
</svg>
